<?xml version="1.0" standalone="no"?>
<!DOCTYPE svg PUBLIC "-//W3C//DTD SVG 20010904//EN"
 "http://www.w3.org/TR/2001/REC-SVG-20010904/DTD/svg10.dtd">
<svg version="1.0" xmlns="http://www.w3.org/2000/svg"
 width="527.000000pt" height="533.000000pt" viewBox="0 0 527.000000 533.000000"
 preserveAspectRatio="xMidYMid meet">
<metadata>
Created by potrace 1.16, written by Peter Selinger 2001-2019
</metadata>
<g transform="translate(0.000000,533.000000) scale(0.100000,-0.100000)"
fill="#000000" stroke="none">
<path d="M2295 5023 c-75 -27 -139 -68 -178 -114 -20 -23 -41 -38 -47 -34 -25
15 -185 6 -244 -15 -136 -47 -244 -153 -275 -268 -5 -17 -23 -30 -64 -47 -219
-89 -336 -335 -248 -520 43 -93 124 -149 230 -162 l49 -6 6 -131 c6 -140 6
-147 3 -276 -2 -66 2 -92 15 -111 16 -25 16 -27 -10 -52 -24 -25 -26 -34 -26
-101 1 -59 6 -85 25 -123 29 -55 92 -108 149 -123 34 -9 40 -15 46 -46 9 -51
74 -144 127 -183 26 -19 47 -36 47 -37 0 -7 -136 37 -174 57 -25 12 -72 47
-105 78 -53 49 -66 69 -100 151 -35 85 -42 95 -67 98 -32 4 -54 -18 -54 -55 0
-21 -5 -23 -45 -23 -59 0 -68 -18 -63 -127 l3 -84 60 -58 c33 -31 86 -97 117
-147 31 -49 73 -108 92 -130 40 -47 152 -109 264 -147 40 -13 75 -26 77 -29 3
-2 -2 -56 -10 -119 -8 -63 -15 -147 -17 -187 -3 -66 -2 -73 17 -78 11 -2 254
-3 540 -2 l520 3 3 45 c3 39 -4 124 -24 285 l-6 50 38 14 c91 31 282 134 332
177 29 25 82 84 118 130 45 57 74 86 92 90 128 28 205 65 217 104 6 19 14 20
142 20 l135 0 34 34 c39 39 45 76 14 76 -18 0 -20 7 -20 68 0 90 -23 194 -60
268 -58 118 -194 225 -328 255 -43 10 -52 16 -52 34 0 31 -19 45 -60 45 -41 0
-60 -14 -60 -46 0 -17 -8 -23 -36 -28 -19 -4 -41 -9 -48 -12 -19 -7 -40 85
-26 120 5 15 10 79 10 142 l0 114 28 0 c93 0 200 65 247 151 27 49 30 62 30
149 0 81 -4 103 -26 150 -49 104 -142 193 -244 235 -53 21 -59 27 -80 78 -71
176 -271 284 -473 256 l-63 -9 -49 50 c-31 31 -75 63 -117 82 -59 28 -79 32
-172 35 -83 3 -117 0 -156 -14z m270 -18 c66 -19 134 -63 179 -117 l37 -45 52
14 c179 49 415 -74 478 -248 20 -55 24 -59 68 -74 189 -62 320 -285 272 -462
-27 -99 -129 -180 -241 -190 -175 -16 -362 109 -424 284 l-14 40 69 6 c69 6
159 37 159 56 0 5 -20 1 -45 -10 -145 -64 -348 -17 -466 108 l-53 56 29 21
c62 45 102 87 128 134 29 53 47 142 30 142 -6 0 -13 -21 -17 -47 -8 -58 -43
-119 -95 -166 -138 -125 -354 -138 -517 -31 -77 51 -134 142 -134 215 0 16 -4
29 -10 29 -15 0 -12 -50 6 -104 19 -54 95 -143 148 -171 20 -11 36 -25 36 -31
0 -18 -102 -110 -148 -133 -91 -46 -207 -62 -301 -40 -24 5 -46 8 -48 5 -11
-11 45 -29 104 -34 74 -6 75 -10 38 -90 -58 -124 -210 -230 -344 -240 -308
-22 -424 315 -190 551 52 52 161 117 196 117 7 0 16 12 19 28 18 74 93 172
168 219 87 55 223 83 308 64 l47 -11 51 54 c103 109 259 146 425 101z m111
-653 c70 -70 145 -114 216 -127 71 -13 73 -17 76 -180 l4 -146 -51 25 c-52 27
-71 32 -71 19 0 -5 25 -18 54 -31 153 -66 350 -229 415 -344 44 -75 41 -88
-24 -122 l-55 -28 -65 68 c-35 38 -64 74 -65 80 0 6 7 17 15 24 31 26 17 40
-37 40 -42 0 -74 10 -167 54 -210 99 -396 136 -570 116 -172 -21 -241 -46
-531 -196 -36 -18 -98 -41 -137 -51 -40 -10 -73 -21 -73 -25 0 -8 55 -55 72
-61 10 -3 7 -11 -8 -28 -12 -13 -35 -45 -53 -71 -20 -30 -37 -45 -46 -42 -40
16 -48 161 -13 233 29 61 176 207 263 264 139 89 303 155 446 179 38 7 69 16
69 21 0 9 -53 4 -107 -10 l-23 -5 0 156 c0 97 -4 156 -10 156 -6 0 -10 -60
-10 -159 l0 -158 -47 -13 c-27 -7 -87 -30 -135 -50 l-88 -38 0 128 c0 159 5
176 62 189 82 20 185 80 237 137 l50 54 53 -11 c29 -6 63 -13 76 -15 21 -4 22
-8 22 -129 0 -77 4 -125 10 -125 6 0 10 48 10 125 l0 124 38 6 c29 4 120 29
128 34 1 1 33 -30 70 -67z m-776 -361 l0 -99 -52 -32 c-29 -18 -83 -57 -120
-87 l-68 -54 0 85 0 84 43 22 c60 31 121 83 158 135 18 25 34 45 36 45 2 0 3
-45 3 -99z m1167 8 c23 -25 69 -61 102 -80 l60 -34 1 -84 0 -84 -42 37 c-24
20 -78 59 -120 88 l-78 51 1 101 c0 98 1 100 17 76 9 -14 36 -45 59 -71z
m-1427 -210 l0 -91 -42 -53 c-29 -37 -45 -50 -50 -42 -4 7 -8 66 -8 133 l0
121 43 10 c23 6 45 11 50 12 4 0 7 -40 7 -90z m1674 75 l36 -6 0 -117 c0 -100
-9 -157 -23 -141 -2 3 -20 26 -40 51 -37 46 -37 47 -37 139 0 76 3 91 14 87 8
-3 31 -9 50 -13z m-548 -346 c22 -15 52 -32 67 -37 35 -14 127 -14 161 -1 23
8 28 6 41 -20 8 -16 29 -39 45 -51 22 -17 31 -33 36 -66 5 -37 2 -53 -25 -103
-38 -72 -61 -169 -61 -267 0 -66 -2 -73 -20 -73 -34 0 -26 -47 16 -86 l35 -34
-28 -26 c-77 -72 -203 -123 -368 -149 -162 -26 -434 -17 -566 18 -235 62 -351
172 -366 347 -4 42 -1 87 7 117 7 28 12 97 11 163 0 63 3 131 7 150 8 34 9 35
69 42 33 3 84 18 112 32 27 14 53 26 56 26 3 0 5 -12 5 -27 0 -54 11 -59 82
-38 35 11 90 38 123 61 l60 41 -3 -84 c-2 -46 -2 -83 0 -83 3 0 29 7 59 16
123 36 267 135 320 220 l21 35 33 -48 c18 -27 50 -61 71 -75z m788 -90 c11
-81 25 -303 26 -395 l0 -83 -265 0 -265 0 0 28 c1 169 80 332 203 416 73 51
169 85 238 85 l56 1 7 -52z m104 -3 c43 -40 71 -78 103 -140 43 -85 43 -87 47
-210 l4 -125 -69 0 -70 0 -7 127 c-3 70 -13 157 -21 193 -16 67 -52 168 -67
185 -12 14 -10 25 6 25 8 0 42 -25 74 -55z m-1964 -191 c53 -112 48 -156 -12
-103 -35 31 -71 49 -98 49 -28 0 -13 -17 25 -29 22 -6 53 -27 70 -46 27 -31
31 -43 31 -95 l0 -59 -29 9 c-88 25 -148 103 -158 206 -10 91 29 142 108 144
24 0 31 -9 63 -76z m-189 -284 c21 -49 46 -97 56 -106 11 -9 19 -22 19 -29 0
-7 -30 -47 -67 -90 l-66 -78 -26 30 c-14 17 -40 40 -57 51 -43 30 -55 66 -52
153 l3 74 54 3 c30 2 59 -2 65 -8 14 -14 11 -152 -4 -179 -6 -12 -6 -22 -1
-26 20 -12 35 42 35 124 1 76 -1 85 -21 98 -22 15 -31 52 -16 66 3 4 14 7 24
7 12 0 28 -25 54 -90z m2073 -32 c-4 -10 -65 -13 -263 -13 -198 0 -259 3 -262
13 -4 9 53 12 262 12 209 0 266 -3 263 -12z m160 -58 c-29 -46 -57 -50 -376
-50 l-299 0 -27 26 c-14 15 -26 31 -26 35 0 5 167 9 370 9 368 0 370 0 358
-20z m-2051 -129 c41 -28 142 -62 266 -91 69 -15 100 -27 107 -40 12 -22 118
-77 165 -86 l33 -6 -14 -40 c-8 -22 -14 -42 -14 -44 0 -2 20 -4 44 -4 33 0 52
7 75 26 17 14 31 21 31 16 0 -6 -38 -41 -85 -78 l-85 -67 -2 -211 -3 -211
-155 0 -155 0 3 70 c5 113 31 299 57 412 28 116 29 127 16 119 -5 -4 -19 -50
-32 -104 -12 -53 -26 -101 -29 -105 -9 -11 -158 44 -235 87 -69 39 -104 75
-171 176 -48 72 -49 87 -8 121 15 12 21 8 61 -35 24 -27 46 -46 50 -43 3 4
-15 29 -41 58 l-46 51 41 50 42 49 26 -24 c14 -13 41 -34 58 -46z m2012 33
c-21 -25 -85 -54 -160 -71 -63 -14 -73 -20 -103 -59 l-34 -44 -86 76 c-47 41
-86 78 -86 80 0 3 15 11 33 19 24 11 84 14 241 15 188 0 207 -2 195 -16z
m-386 -125 c5 -4 -8 -23 -29 -42 -22 -20 -35 -39 -31 -43 4 -4 24 9 45 28 l37
37 29 -24 30 -24 -75 -73 c-60 -60 -95 -85 -184 -130 -60 -30 -136 -66 -169
-79 l-58 -24 7 -60 c17 -155 25 -233 25 -273 l0 -42 -357 2 -358 3 -3 202 -2
202 93 76 c54 42 104 75 116 75 12 0 32 5 44 11 16 9 22 9 25 0 6 -19 59 -41
98 -41 35 0 36 1 31 28 -3 15 -8 34 -12 43 -4 11 6 18 45 28 28 7 73 28 101
46 55 37 54 38 78 -37 7 -21 17 -38 22 -38 12 0 12 -2 -11 65 -11 32 -19 59
-18 61 2 1 55 16 118 32 63 17 146 44 185 60 l70 30 50 -45 c27 -26 54 -50 58
-54z"/>
<path d="M2002 3224 c-27 -19 -28 -31 -2 -39 29 -9 25 -25 -10 -38 -38 -14
-39 -44 -4 -86 56 -67 144 -20 144 76 0 78 -71 127 -128 87z"/>
<path d="M2764 3217 l-27 -24 26 -7 c36 -9 34 -25 -3 -39 -38 -14 -39 -44 -4
-86 71 -85 183 25 130 127 -29 56 -77 67 -122 29z"/>
<path d="M2315 2898 c4 -18 16 -53 27 -78 64 -149 166 -110 212 83 l6 27 -126
0 -126 0 7 -32z"/>
</g>
</svg>
